<?xml version="1.0" encoding="UTF-8"?>
<svg version="1.1" xmlns="http://www.w3.org/2000/svg" width="32" height="32">
<path d="M0 0 C10.56 0 21.12 0 32 0 C32 10.56 32 21.12 32 32 C21.44 32 10.88 32 0 32 C0 21.44 0 10.88 0 0 Z " fill="#0A090B" transform="translate(0,0)"/>
<path d="M0 0 C0 0.99 0 1.98 0 3 C0.66 3 1.32 3 2 3 C2 6.63 2 10.26 2 14 C2.66 14.33 3.32 14.66 4 15 C1.36 15 -1.28 15 -4 15 C-3.34 14.67 -2.68 14.34 -2 14 C-2 10.04 -2 6.08 -2 2 C-3.32 2.33 -4.64 2.66 -6 3 C-6.33 6.63 -6.66 10.26 -7 14 C-6.34 14.33 -5.68 14.66 -5 15 C-7.64 15 -10.28 15 -13 15 C-12.34 14.67 -11.68 14.34 -11 14 C-11.33 9.71 -11.66 5.42 -12 1 C-3.96428571 -1.27678571 -3.96428571 -1.27678571 0 0 Z " fill="#CCCBCC" transform="translate(16,9)"/>
<path d="M0 0 C1.38226016 2.76452033 1.09525387 5.0461363 1.0625 8.125 C1.05347656 9.22070312 1.04445313 10.31640625 1.03515625 11.4453125 C1.02355469 12.28835937 1.01195312 13.13140625 1 14 C1.66 14.33 2.32 14.66 3 15 C0.36 15 -2.28 15 -5 15 C-4.67 14.34 -4.34 13.68 -4 13 C-3.92966231 11.12620395 -3.9156978 9.24998898 -3.9375 7.375 C-3.95103516 5.87066406 -3.95103516 5.87066406 -3.96484375 4.3359375 C-3.97644531 3.56507812 -3.98804688 2.79421875 -4 2 C-6.31 2.33 -8.62 2.66 -11 3 C-8.62951175 -1.74097649 -4.60259767 -1.22735938 0 0 Z " fill="#653AC1" transform="translate(27,9)"/>
<path d="M0 0 C0.66 0.33 1.32 0.66 2 1 C2 5.29 2 9.58 2 14 C2.66 14.33 3.32 14.66 4 15 C1.36 15 -1.28 15 -4 15 C-3.34 14.67 -2.68 14.34 -2 14 C-2.33 9.71 -2.66 5.42 -3 1 C-2.01 0.67 -1.02 0.34 0 0 Z " fill="#DEDDDE" transform="translate(7,9)"/>
<path d="M0 0 C-0.99 0.33 -1.98 0.66 -3 1 C-3.33 1.99 -3.66 2.98 -4 4 C-4 3.34 -4 2.68 -4 2 C-6.31 2.33 -8.62 2.66 -11 3 C-8.59404283 -1.81191435 -4.65715828 -1.05844506 0 0 Z " fill="#553891" transform="translate(27,9)"/>
</svg>
