<svg version="1.1" id="Layer_1" xmlns="http://www.w3.org/2000/svg" xmlns:xlink="http://www.w3.org/1999/xlink" x="0px" y="0px"
	 width="100%" viewBox="0 0 500 500" enable-background="new 0 0 500 500" xml:space="preserve">
<path fill="#00473E" opacity="1.000000" stroke="none" 
	d="
M284.000000,501.000000 
	C189.333359,501.000000 95.166710,501.000000 1.000051,501.000000 
	C1.000034,334.333405 1.000034,167.666794 1.000017,1.000140 
	C167.666565,1.000093 334.333130,1.000093 500.999756,1.000047 
	C500.999847,167.666519 500.999847,334.333038 500.999939,500.999786 
	C428.833344,501.000000 356.666656,501.000000 284.000000,501.000000 
M318.175140,375.404419 
	C318.175140,372.992126 318.175140,370.579834 318.175140,367.852234 
	C321.565094,367.852234 324.175385,367.852234 326.882751,367.852234 
	C326.882751,361.787201 326.882751,356.060577 326.882751,349.815430 
	C321.889160,349.815430 317.156525,349.815430 312.140076,349.815430 
	C312.140076,346.684998 312.140076,344.074982 312.140076,340.980530 
	C308.099365,340.980530 304.354645,340.980530 300.131775,340.980530 
	C300.131775,337.778229 300.131775,335.035370 300.131775,331.799988 
	C296.927002,331.799988 294.190125,331.799988 291.462646,331.799988 
	C291.462646,280.672852 291.462646,230.072128 291.462646,179.212906 
	C294.419830,179.062408 297.168793,178.922531 300.367249,178.759766 
	C300.367249,175.735352 300.367249,172.998245 300.367249,170.358765 
	C309.579437,170.358765 318.310638,170.358765 327.338562,170.358765 
	C327.338562,173.334396 327.338562,175.948166 327.338562,179.047028 
	C333.376404,179.047028 339.122345,179.047028 345.325714,179.047028 
	C345.325714,245.276825 345.325714,311.013245 345.325714,377.236816 
	C348.542297,377.236816 351.281036,377.236816 354.305511,377.236816 
	C354.305511,383.342621 354.305511,388.960175 354.305511,394.812012 
	C357.348663,394.949951 360.099457,395.074646 363.307007,395.220032 
	C363.307007,398.229095 363.307007,400.964691 363.307007,404.170776 
	C368.526855,404.170776 373.275970,404.170776 378.293030,404.170776 
	C378.293030,407.278168 378.293030,409.902069 378.293030,412.754974 
	C388.311035,412.754974 398.043915,412.754974 408.261841,412.754974 
	C408.261841,407.784485 408.261841,403.040955 408.261841,397.820404 
	C414.477905,397.820404 420.218872,397.820404 426.228821,397.820404 
	C426.228821,391.700531 426.228821,386.082550 426.228821,379.996338 
	C432.248505,379.996338 437.994446,379.996338 444.194397,379.996338 
	C444.194397,373.790009 444.194397,368.048401 444.194397,361.832153 
	C450.397003,361.832153 456.132690,361.832153 461.670898,361.832153 
	C461.670898,354.590881 461.670898,347.852997 461.670898,341.253815 
	C457.698547,341.253815 454.088745,341.253815 450.021729,341.253815 
	C450.021729,344.229980 450.021729,346.960144 450.021729,349.659241 
	C444.815491,349.659241 440.088196,349.659241 434.884369,349.659241 
	C434.884369,346.593567 434.884369,343.867249 434.884369,340.871460 
	C431.786774,340.871460 429.168182,340.871460 426.341492,340.871460 
	C426.341492,280.848480 426.341492,221.118362 426.341492,161.191483 
	C429.328369,161.053848 432.075958,160.927246 435.274048,160.779861 
	C435.274048,156.735718 435.274048,152.991013 435.274048,148.784042 
	C438.483307,148.784042 441.219299,148.784042 443.719727,148.784042 
	C443.719727,136.558533 443.719727,124.821083 443.719727,113.259216 
	C440.728241,113.259216 438.114807,113.259216 435.256531,113.259216 
	C435.156921,115.239059 435.069580,116.975517 434.961884,119.116417 
	C430.514343,119.116417 426.413361,119.116417 422.211090,119.116417 
	C422.085663,121.278786 421.984833,123.016823 421.891296,124.629585 
	C412.067139,124.629585 402.671021,124.629585 392.996094,124.629585 
	C392.996094,121.649658 392.996094,119.038460 392.996094,115.919991 
	C388.985382,115.919991 385.240570,115.919991 381.035156,115.919991 
	C381.035156,112.685425 381.035156,109.960007 381.035156,106.764702 
	C377.809784,106.764702 375.077240,106.764702 372.062439,106.764702 
	C372.062439,103.669235 372.062439,101.059669 372.062439,98.253731 
	C366.024628,98.253731 360.287170,98.253731 354.070770,98.253731 
	C354.070770,101.226791 354.070770,103.954933 354.070770,107.200790 
	C347.872192,107.200790 342.142883,107.200790 336.120819,107.200790 
	C336.120819,110.341202 336.120819,112.948853 336.120819,116.023575 
	C333.071075,116.023575 330.326813,116.023575 327.108215,116.023575 
	C327.108215,119.219254 327.108215,121.951454 327.108215,125.183670 
	C323.906647,125.183670 321.176697,125.183670 318.151459,125.183670 
	C318.151459,128.305557 318.151459,130.914932 318.151459,133.988953 
	C315.102570,133.988953 312.356964,133.988953 309.140686,133.988953 
	C309.140686,137.179291 309.140686,139.910599 309.140686,142.669098 
	C299.931244,142.669098 291.205902,142.669098 281.980103,142.669098 
	C281.980103,136.618149 281.980103,130.886383 281.980103,124.840607 
	C278.868225,124.840607 276.263306,124.840607 273.161743,124.840607 
	C273.161743,118.782211 273.161743,113.040779 273.161743,106.793518 
	C269.942108,106.793518 267.223114,106.793518 264.203979,106.793518 
	C264.203979,103.655540 264.203979,101.047119 264.203979,97.948959 
	C258.151947,97.948959 252.400177,97.948959 246.440720,97.948959 
	C246.300461,94.741783 246.180542,91.999504 246.064484,89.345764 
	C242.924347,89.345764 240.197861,89.345764 237.171402,89.345764 
	C237.171402,92.295181 237.171402,94.910049 237.171402,97.791344 
	C234.134903,97.941628 231.392868,98.077332 228.173477,98.236656 
	C228.173477,101.244133 228.173477,103.976776 228.173477,107.201523 
	C221.949326,107.201523 216.216660,107.201523 210.182098,107.201523 
	C210.182098,110.326630 210.182098,112.934525 210.182098,115.777596 
	C207.144623,115.938271 204.399780,116.083458 201.486664,116.237549 
	C201.332092,119.283119 201.193298,122.018082 201.038651,125.065308 
	C198.059799,125.065308 195.451828,125.065308 192.557266,125.065308 
	C192.413666,128.138687 192.285431,130.883347 192.148773,133.808289 
	C189.132599,133.954330 186.385086,134.087341 183.464722,134.228745 
	C183.317139,137.292709 183.185364,140.028717 183.030319,143.247681 
	C176.921783,143.247681 171.191391,143.247681 165.160309,143.247681 
	C165.160309,146.381226 165.160309,148.985168 165.160309,151.683411 
	C162.100220,151.683411 159.381149,151.683411 156.139221,151.683411 
	C156.139221,145.653152 156.139221,139.927902 156.139221,133.864288 
	C153.008575,133.864288 150.408630,133.864288 147.297668,133.864288 
	C147.297668,127.784889 147.297668,122.045319 147.297668,115.822357 
	C144.057617,115.822357 141.313004,115.822357 138.292969,115.822357 
	C138.292969,112.705444 138.292969,110.094040 138.292969,107.234070 
	C135.249664,107.068359 132.503708,106.918839 129.277649,106.743179 
	C129.277649,103.751053 129.277649,101.012611 129.277649,97.780167 
	C123.053268,97.780167 117.325966,97.780167 111.285110,97.780167 
	C111.285110,94.650345 111.285110,92.037025 111.285110,89.298225 
	C108.222336,89.298225 105.499413,89.298225 102.600327,89.298225 
	C102.445137,92.312523 102.304512,95.043968 102.139221,98.254410 
	C99.016838,98.254410 96.293808,98.254410 93.256409,98.254410 
	C93.256409,101.376534 93.256409,103.980637 93.256409,106.790024 
	C90.197472,106.948624 87.461937,107.090454 84.576347,107.240059 
	C84.431862,110.336700 84.304268,113.071320 84.162437,116.110970 
	C81.102966,116.110970 78.500671,116.110970 75.688339,116.110970 
	C75.526947,119.196983 75.383446,121.940941 75.232452,124.827972 
	C72.180984,124.967270 69.436722,125.092545 66.409019,125.230759 
	C66.409019,128.264191 66.409019,130.882523 66.409019,133.758881 
	C63.359264,133.923950 60.611538,134.072678 57.650661,134.232925 
	C57.510788,137.221878 57.382454,139.964233 57.232136,143.176331 
	C54.146362,143.176331 51.408073,143.176331 48.380966,143.176331 
	C48.380966,146.288025 48.380966,148.905914 48.380966,151.735519 
	C45.333282,151.925888 42.588497,152.097336 39.901566,152.265167 
	C39.901566,155.276749 39.901566,157.901398 39.901566,161.069855 
	C45.803486,161.069855 51.533199,161.069855 57.245502,161.069855 
	C57.428146,164.357635 57.580391,167.098236 57.749653,170.145111 
	C63.868736,170.145111 69.491837,170.145111 75.579865,170.145111 
	C75.579865,176.240143 75.579865,181.999008 75.579865,188.248703 
	C78.789619,188.248703 81.526970,188.248703 84.162125,188.248703 
	C84.162125,239.363586 84.162125,289.971771 84.162125,341.122498 
	C79.216156,341.122498 74.489326,341.122498 69.456612,341.122498 
	C69.456612,345.279785 69.456612,348.898895 69.456612,352.999176 
	C65.383484,352.999176 61.634735,352.999176 57.376984,352.999176 
	C57.376984,358.205200 57.376984,362.948456 57.376984,368.168884 
	C54.131958,368.168884 51.400963,368.168884 48.595253,368.168884 
	C48.595253,371.280304 48.595253,373.883301 48.595253,376.961639 
	C60.556221,376.961639 72.310135,376.961639 84.517822,376.961639 
	C84.517822,380.188568 84.517822,382.948700 84.517822,386.156738 
	C90.724861,386.156738 96.478790,386.156738 102.193573,386.156738 
	C102.381752,389.363220 102.542595,392.103790 102.721634,395.154602 
	C105.825165,395.154602 108.441406,395.154602 111.515900,395.154602 
	C111.515900,398.261536 111.515900,401.015198 111.515900,404.258728 
	C114.715256,404.258728 117.448250,404.258728 120.493828,404.258728 
	C120.493828,407.377533 120.493828,409.990631 120.493828,412.733521 
	C126.587181,412.733521 132.339661,412.733521 138.547363,412.733521 
	C138.547363,409.711426 138.547363,406.959534 138.547363,403.750732 
	C141.747726,403.750732 144.486389,403.750732 147.539871,403.750732 
	C147.539871,400.656708 147.539871,398.034790 147.539871,395.210236 
	C150.606644,395.058350 153.361603,394.921906 156.565826,394.763214 
	C156.565826,391.688171 156.565826,388.942993 156.565826,385.879333 
	C159.657822,385.879333 162.276184,385.879333 165.368652,385.879333 
	C165.368652,382.812958 165.368652,380.069244 165.368652,376.870789 
	C168.600632,376.870789 171.352600,376.870789 174.585587,376.870789 
	C174.585587,372.667572 174.585587,368.931976 174.585587,364.858948 
	C177.688309,364.858948 180.298050,364.858948 182.990997,364.858948 
	C182.990997,359.761932 182.990997,355.026917 182.990997,350.244843 
	C180.982956,350.029877 179.248413,349.844208 177.240387,349.629272 
	C177.240387,346.683472 177.240387,344.071869 177.240387,340.972321 
	C173.191864,340.972321 169.438797,340.972321 165.203629,340.972321 
	C165.203629,337.760681 165.203629,335.031738 165.203629,331.778717 
	C161.986328,331.778717 159.265244,331.778717 156.565536,331.778717 
	C156.565536,283.633453 156.565536,236.030334 156.565536,188.211197 
	C159.552841,188.059509 162.303528,187.919830 165.501923,187.757416 
	C165.501923,184.688126 165.501923,181.942261 165.501923,178.743591 
	C168.715286,178.743591 171.456940,178.743591 174.505783,178.743591 
	C174.505783,175.651871 174.505783,173.032257 174.505783,170.204987 
	C177.572495,170.056778 180.323395,169.923813 183.524597,169.769104 
	C183.524597,166.680878 183.524597,163.935471 183.524597,161.238464 
	C192.616440,161.238464 201.231644,161.238464 210.334778,161.238464 
	C210.334778,167.204437 210.334778,172.946869 210.334778,179.148376 
	C213.573196,179.148376 216.320862,179.148376 218.923065,179.148376 
	C218.923065,233.340607 218.923065,287.058167 218.923065,341.110168 
	C213.950012,341.110168 209.336456,341.110168 204.234467,341.110168 
	C204.234467,345.161835 204.234467,348.904175 204.234467,353.178772 
	C200.026993,353.178772 196.298950,353.178772 192.264130,353.178772 
	C192.264130,358.338776 192.264130,362.947205 192.264130,367.801575 
	C189.181870,367.946503 186.434357,368.075653 183.591400,368.209320 
	C183.591400,371.254181 183.591400,373.977753 183.591400,377.172363 
	C195.646347,377.172363 207.393204,377.172363 219.440720,377.172363 
	C219.440720,380.274689 219.440720,382.895477 219.440720,386.024658 
	C225.485886,386.024658 231.228287,386.024658 237.423660,386.024658 
	C237.423660,389.284851 237.423660,392.027832 237.423660,395.243652 
	C243.621964,395.243652 249.358963,395.243652 255.395172,395.243652 
	C255.395172,398.350311 255.395172,400.970154 255.395172,403.807159 
	C258.453247,403.947968 261.212646,404.075012 264.427399,404.223022 
	C264.427399,407.248291 264.427399,409.989868 264.427399,412.621094 
	C270.633118,412.621094 276.351746,412.621094 282.375397,412.621094 
	C282.375397,409.625977 282.375397,407.012939 282.375397,403.943787 
	C285.441101,403.943787 288.190155,403.943787 291.400818,403.943787 
	C291.400818,400.739014 291.400818,397.994324 291.400818,394.769287 
	C294.610077,394.769287 297.347473,394.769287 300.374298,394.769287 
	C300.374298,391.655151 300.374298,389.034637 300.374298,386.191132 
	C303.414459,386.053009 306.160187,385.928253 309.349487,385.783356 
	C309.349487,382.707886 309.349487,379.967987 309.349487,377.429138 
	C312.575897,377.023499 315.319550,376.678558 318.175140,375.404419 
z"/>
<path fill="#F8F3EE" opacity="1.000000" stroke="none" 
	d="
M318.119171,375.869019 
	C315.319550,376.678558 312.575897,377.023499 309.349487,377.429138 
	C309.349487,379.967987 309.349487,382.707886 309.349487,385.783356 
	C306.160187,385.928253 303.414459,386.053009 300.374298,386.191132 
	C300.374298,389.034637 300.374298,391.655151 300.374298,394.769287 
	C297.347473,394.769287 294.610077,394.769287 291.400818,394.769287 
	C291.400818,397.994324 291.400818,400.739014 291.400818,403.943787 
	C288.190155,403.943787 285.441101,403.943787 282.375397,403.943787 
	C282.375397,407.012939 282.375397,409.625977 282.375397,412.621094 
	C276.351746,412.621094 270.633118,412.621094 264.427399,412.621094 
	C264.427399,409.989868 264.427399,407.248291 264.427399,404.223022 
	C261.212646,404.075012 258.453247,403.947968 255.395172,403.807159 
	C255.395172,400.970154 255.395172,398.350311 255.395172,395.243652 
	C249.358963,395.243652 243.621964,395.243652 237.423660,395.243652 
	C237.423660,392.027832 237.423660,389.284851 237.423660,386.024658 
	C231.228287,386.024658 225.485886,386.024658 219.440720,386.024658 
	C219.440720,382.895477 219.440720,380.274689 219.440720,377.172363 
	C207.393204,377.172363 195.646347,377.172363 183.591400,377.172363 
	C183.591400,373.977753 183.591400,371.254181 183.591400,368.209320 
	C186.434357,368.075653 189.181870,367.946503 192.264130,367.801575 
	C192.264130,362.947205 192.264130,358.338776 192.264130,353.178772 
	C196.298950,353.178772 200.026993,353.178772 204.234467,353.178772 
	C204.234467,348.904175 204.234467,345.161835 204.234467,341.110168 
	C209.336456,341.110168 213.950012,341.110168 218.923065,341.110168 
	C218.923065,287.058167 218.923065,233.340607 218.923065,179.148376 
	C216.320862,179.148376 213.573196,179.148376 210.334778,179.148376 
	C210.334778,172.946869 210.334778,167.204437 210.334778,161.238464 
	C201.231644,161.238464 192.616440,161.238464 183.524597,161.238464 
	C183.524597,163.935471 183.524597,166.680878 183.524597,169.769104 
	C180.323395,169.923813 177.572495,170.056778 174.505783,170.204987 
	C174.505783,173.032257 174.505783,175.651871 174.505783,178.743591 
	C171.456940,178.743591 168.715286,178.743591 165.501923,178.743591 
	C165.501923,181.942261 165.501923,184.688126 165.501923,187.757416 
	C162.303528,187.919830 159.552841,188.059509 156.565536,188.211197 
	C156.565536,236.030334 156.565536,283.633453 156.565536,331.778717 
	C159.265244,331.778717 161.986328,331.778717 165.203629,331.778717 
	C165.203629,335.031738 165.203629,337.760681 165.203629,340.972321 
	C169.438797,340.972321 173.191864,340.972321 177.240387,340.972321 
	C177.240387,344.071869 177.240387,346.683472 177.240387,349.629272 
	C179.248413,349.844208 180.982956,350.029877 182.990997,350.244843 
	C182.990997,355.026917 182.990997,359.761932 182.990997,364.858948 
	C180.298050,364.858948 177.688309,364.858948 174.585587,364.858948 
	C174.585587,368.931976 174.585587,372.667572 174.585587,376.870789 
	C171.352600,376.870789 168.600632,376.870789 165.368652,376.870789 
	C165.368652,380.069244 165.368652,382.812958 165.368652,385.879333 
	C162.276184,385.879333 159.657822,385.879333 156.565826,385.879333 
	C156.565826,388.942993 156.565826,391.688171 156.565826,394.763214 
	C153.361603,394.921906 150.606644,395.058350 147.539871,395.210236 
	C147.539871,398.034790 147.539871,400.656708 147.539871,403.750732 
	C144.486389,403.750732 141.747726,403.750732 138.547363,403.750732 
	C138.547363,406.959534 138.547363,409.711426 138.547363,412.733521 
	C132.339661,412.733521 126.587181,412.733521 120.493828,412.733521 
	C120.493828,409.990631 120.493828,407.377533 120.493828,404.258728 
	C117.448250,404.258728 114.715256,404.258728 111.515900,404.258728 
	C111.515900,401.015198 111.515900,398.261536 111.515900,395.154602 
	C108.441406,395.154602 105.825165,395.154602 102.721634,395.154602 
	C102.542595,392.103790 102.381752,389.363220 102.193573,386.156738 
	C96.478790,386.156738 90.724861,386.156738 84.517822,386.156738 
	C84.517822,382.948700 84.517822,380.188568 84.517822,376.961639 
	C72.310135,376.961639 60.556221,376.961639 48.595253,376.961639 
	C48.595253,373.883301 48.595253,371.280304 48.595253,368.168884 
	C51.400963,368.168884 54.131958,368.168884 57.376984,368.168884 
	C57.376984,362.948456 57.376984,358.205200 57.376984,352.999176 
	C61.634735,352.999176 65.383484,352.999176 69.456612,352.999176 
	C69.456612,348.898895 69.456612,345.279785 69.456612,341.122498 
	C74.489326,341.122498 79.216156,341.122498 84.162125,341.122498 
	C84.162125,289.971771 84.162125,239.363586 84.162125,188.248703 
	C81.526970,188.248703 78.789619,188.248703 75.579865,188.248703 
	C75.579865,181.999008 75.579865,176.240143 75.579865,170.145111 
	C69.491837,170.145111 63.868736,170.145111 57.749653,170.145111 
	C57.580391,167.098236 57.428146,164.357635 57.245502,161.069855 
	C51.533199,161.069855 45.803486,161.069855 39.901566,161.069855 
	C39.901566,157.901398 39.901566,155.276749 39.901566,152.265167 
	C42.588497,152.097336 45.333282,151.925888 48.380966,151.735519 
	C48.380966,148.905914 48.380966,146.288025 48.380966,143.176331 
	C51.408073,143.176331 54.146362,143.176331 57.232136,143.176331 
	C57.382454,139.964233 57.510788,137.221878 57.650661,134.232925 
	C60.611538,134.072678 63.359264,133.923950 66.409019,133.758881 
	C66.409019,130.882523 66.409019,128.264191 66.409019,125.230759 
	C69.436722,125.092545 72.180984,124.967270 75.232452,124.827972 
	C75.383446,121.940941 75.526947,119.196983 75.688339,116.110970 
	C78.500671,116.110970 81.102966,116.110970 84.162437,116.110970 
	C84.304268,113.071320 84.431862,110.336700 84.576347,107.240059 
	C87.461937,107.090454 90.197472,106.948624 93.256409,106.790024 
	C93.256409,103.980637 93.256409,101.376534 93.256409,98.254410 
	C96.293808,98.254410 99.016838,98.254410 102.139221,98.254410 
	C102.304512,95.043968 102.445137,92.312523 102.600327,89.298225 
	C105.499413,89.298225 108.222336,89.298225 111.285110,89.298225 
	C111.285110,92.037025 111.285110,94.650345 111.285110,97.780167 
	C117.325966,97.780167 123.053268,97.780167 129.277649,97.780167 
	C129.277649,101.012611 129.277649,103.751053 129.277649,106.743179 
	C132.503708,106.918839 135.249664,107.068359 138.292969,107.234070 
	C138.292969,110.094040 138.292969,112.705444 138.292969,115.822357 
	C141.313004,115.822357 144.057617,115.822357 147.297668,115.822357 
	C147.297668,122.045319 147.297668,127.784889 147.297668,133.864288 
	C150.408630,133.864288 153.008575,133.864288 156.139221,133.864288 
	C156.139221,139.927902 156.139221,145.653152 156.139221,151.683411 
	C159.381149,151.683411 162.100220,151.683411 165.160309,151.683411 
	C165.160309,148.985168 165.160309,146.381226 165.160309,143.247681 
	C171.191391,143.247681 176.921783,143.247681 183.030319,143.247681 
	C183.185364,140.028717 183.317139,137.292709 183.464722,134.228745 
	C186.385086,134.087341 189.132599,133.954330 192.148773,133.808289 
	C192.285431,130.883347 192.413666,128.138687 192.557266,125.065308 
	C195.451828,125.065308 198.059799,125.065308 201.038651,125.065308 
	C201.193298,122.018082 201.332092,119.283119 201.486664,116.237549 
	C204.399780,116.083458 207.144623,115.938271 210.182098,115.777596 
	C210.182098,112.934525 210.182098,110.326630 210.182098,107.201523 
	C216.216660,107.201523 221.949326,107.201523 228.173477,107.201523 
	C228.173477,103.976776 228.173477,101.244133 228.173477,98.236656 
	C231.392868,98.077332 234.134903,97.941628 237.171402,97.791344 
	C237.171402,94.910049 237.171402,92.295181 237.171402,89.345764 
	C240.197861,89.345764 242.924347,89.345764 246.064484,89.345764 
	C246.180542,91.999504 246.300461,94.741783 246.440720,97.948959 
	C252.400177,97.948959 258.151947,97.948959 264.203979,97.948959 
	C264.203979,101.047119 264.203979,103.655540 264.203979,106.793518 
	C267.223114,106.793518 269.942108,106.793518 273.161743,106.793518 
	C273.161743,113.040779 273.161743,118.782211 273.161743,124.840607 
	C276.263306,124.840607 278.868225,124.840607 281.980103,124.840607 
	C281.980103,130.886383 281.980103,136.618149 281.980103,142.669098 
	C291.205902,142.669098 299.931244,142.669098 309.140686,142.669098 
	C309.140686,139.910599 309.140686,137.179291 309.140686,133.988953 
	C312.356964,133.988953 315.102570,133.988953 318.151459,133.988953 
	C318.151459,130.914932 318.151459,128.305557 318.151459,125.183670 
	C321.176697,125.183670 323.906647,125.183670 327.108215,125.183670 
	C327.108215,121.951454 327.108215,119.219254 327.108215,116.023575 
	C330.326813,116.023575 333.071075,116.023575 336.120819,116.023575 
	C336.120819,112.948853 336.120819,110.341202 336.120819,107.200790 
	C342.142883,107.200790 347.872192,107.200790 354.070770,107.200790 
	C354.070770,103.954933 354.070770,101.226791 354.070770,98.253731 
	C360.287170,98.253731 366.024628,98.253731 372.062439,98.253731 
	C372.062439,101.059669 372.062439,103.669235 372.062439,106.764702 
	C375.077240,106.764702 377.809784,106.764702 381.035156,106.764702 
	C381.035156,109.960007 381.035156,112.685425 381.035156,115.919991 
	C385.240570,115.919991 388.985382,115.919991 392.996094,115.919991 
	C392.996094,119.038460 392.996094,121.649658 392.996094,124.629585 
	C402.671021,124.629585 412.067139,124.629585 421.891296,124.629585 
	C421.984833,123.016823 422.085663,121.278786 422.211090,119.116417 
	C426.413361,119.116417 430.514343,119.116417 434.961884,119.116417 
	C435.069580,116.975517 435.156921,115.239059 435.256531,113.259216 
	C438.114807,113.259216 440.728241,113.259216 443.719727,113.259216 
	C443.719727,124.821083 443.719727,136.558533 443.719727,148.784042 
	C441.219299,148.784042 438.483307,148.784042 435.274048,148.784042 
	C435.274048,152.991013 435.274048,156.735718 435.274048,160.779861 
	C432.075958,160.927246 429.328369,161.053848 426.341492,161.191483 
	C426.341492,221.118362 426.341492,280.848480 426.341492,340.871460 
	C429.168182,340.871460 431.786774,340.871460 434.884369,340.871460 
	C434.884369,343.867249 434.884369,346.593567 434.884369,349.659241 
	C440.088196,349.659241 444.815491,349.659241 450.021729,349.659241 
	C450.021729,346.960144 450.021729,344.229980 450.021729,341.253815 
	C454.088745,341.253815 457.698547,341.253815 461.670898,341.253815 
	C461.670898,347.852997 461.670898,354.590881 461.670898,361.832153 
	C456.132690,361.832153 450.397003,361.832153 444.194397,361.832153 
	C444.194397,368.048401 444.194397,373.790009 444.194397,379.996338 
	C437.994446,379.996338 432.248505,379.996338 426.228821,379.996338 
	C426.228821,386.082550 426.228821,391.700531 426.228821,397.820404 
	C420.218872,397.820404 414.477905,397.820404 408.261841,397.820404 
	C408.261841,403.040955 408.261841,407.784485 408.261841,412.754974 
	C398.043915,412.754974 388.311035,412.754974 378.293030,412.754974 
	C378.293030,409.902069 378.293030,407.278168 378.293030,404.170776 
	C373.275970,404.170776 368.526855,404.170776 363.307007,404.170776 
	C363.307007,400.964691 363.307007,398.229095 363.307007,395.220032 
	C360.099457,395.074646 357.348663,394.949951 354.305511,394.812012 
	C354.305511,388.960175 354.305511,383.342621 354.305511,377.236816 
	C351.281036,377.236816 348.542297,377.236816 345.325714,377.236816 
	C345.325714,311.013245 345.325714,245.276825 345.325714,179.047028 
	C339.122345,179.047028 333.376404,179.047028 327.338562,179.047028 
	C327.338562,175.948166 327.338562,173.334396 327.338562,170.358765 
	C318.310638,170.358765 309.579437,170.358765 300.367249,170.358765 
	C300.367249,172.998245 300.367249,175.735352 300.367249,178.759766 
	C297.168793,178.922531 294.419830,179.062408 291.462646,179.212906 
	C291.462646,230.072128 291.462646,280.672852 291.462646,331.799988 
	C294.190125,331.799988 296.927002,331.799988 300.131775,331.799988 
	C300.131775,335.035370 300.131775,337.778229 300.131775,340.980530 
	C304.354645,340.980530 308.099365,340.980530 312.140076,340.980530 
	C312.140076,344.074982 312.140076,346.684998 312.140076,349.815430 
	C317.156525,349.815430 321.889160,349.815430 326.882751,349.815430 
	C326.882751,356.060577 326.882751,361.787201 326.882751,367.852234 
	C324.175385,367.852234 321.565094,367.852234 318.175140,367.852234 
	C318.175140,370.579834 318.175140,372.992126 318.119171,375.869019 
z"/>
</svg>